<svg width="123" height="123" fill="none" xmlns="http://www.w3.org/2000/svg"><circle cx="61.435" cy="61.435" r="60.935" stroke="#4B00E1" stroke-opacity=".6"/><mask id="a" fill="#fff"><path d="M122.478 61.435a.39.39 0 01.39.392A61.428 61.428 0 0182.21 119.25a61.42 61.42 0 01-24.29 3.519.39.39 0 01-.367-.415c.014-.216.2-.38.416-.367a60.654 60.654 0 0064.115-60.16.395.395 0 01.394-.392z"/></mask><path d="M122.478 61.435a.39.39 0 01.39.392A61.428 61.428 0 0182.21 119.25a61.42 61.42 0 01-24.29 3.519.39.39 0 01-.367-.415c.014-.216.2-.38.416-.367a60.654 60.654 0 0064.115-60.16.395.395 0 01.394-.392z" stroke="url(#paint0_linear)" stroke-width="2" mask="url(#a)"/><mask id="b" fill="#fff"><path d="M61.435.392a.39.39 0 00-.392-.39A61.435 61.435 0 00.101 64.95a.39.39 0 00.415.367c.216-.014.38-.2.368-.417A60.65 60.65 0 0161.044.785a.394.394 0 00.391-.393z"/></mask><path d="M61.435.392a.39.39 0 00-.392-.39A61.435 61.435 0 00.101 64.95a.39.39 0 00.415.367c.216-.014.38-.2.368-.417A60.65 60.65 0 0161.044.785a.394.394 0 00.391-.393z" stroke="url(#paint1_linear)" stroke-width="2" mask="url(#b)"/><circle cx="111.056" cy="25.047" r="2.363" fill="#FB0086"/><circle cx="18.431" cy="104.44" r="2.363" fill="#FB0086"/><g clip-path="url(#clip0)" fill="#fff"><path d="M79.333 81H43.675A1.672 1.672 0 0142 79.333V43.675c0-.926.749-1.675 1.675-1.675h35.658c.926 0 1.675.749 1.675 1.675v31.084a.557.557 0 01-1.111 0V43.675a.557.557 0 00-.556-.556H43.675a.557.557 0 00-.556.556v35.658c0 .306.25.556.556.556h35.658c.306 0 .556-.25.556-.556v-5.701a.557.557 0 011.111 0v5.701A1.67 1.67 0 0179.333 81z"/><path d="M80.444 51.47H42.556a.557.557 0 010-1.111h37.888a.557.557 0 010 1.111zm-4.734-2.883a1.846 1.846 0 01-1.853-1.844c0-1.023.822-1.852 1.844-1.852 1.023 0 1.853.821 1.853 1.844 0 1.023-.83 1.844-1.844 1.852zm0-2.585a.73.73 0 00-.733.733.73.73 0 00.733.733.73.73 0 00.732-.733.736.736 0 00-.732-.733zm-5.388 2.585a1.846 1.846 0 01-1.844-1.852c0-1.023.83-1.844 1.852-1.844 1.023 0 1.844.83 1.844 1.852 0 1.015-.83 1.836-1.852 1.844zm0-2.585a.736.736 0 00-.733.733c0 .403.33.733.733.733.403 0 .733-.33.733-.733a.735.735 0 00-.733-.733zm-5.379 2.585a1.846 1.846 0 01-1.844-1.852c0-1.023.83-1.844 1.852-1.844 1.023 0 1.844.83 1.844 1.852a1.867 1.867 0 01-1.852 1.844zm0-2.585a.736.736 0 00-.733.733c0 .403.33.733.733.733.402 0 .733-.33.733-.733a.736.736 0 00-.733-.733zm-3.439 29.425a9.75 9.75 0 01-9.752-9.752c0-5.387 4.365-9.744 9.752-9.744a9.75 9.75 0 019.752 9.752c-.008 5.38-4.373 9.744-9.752 9.744zm0-18.384a8.633 8.633 0 108.633 8.632 8.649 8.649 0 00-8.633-8.632z"/><path d="M68.912 71.675a.576.576 0 01-.45-.226c-2.803-3.84-8.198-4.686-12.04-1.884a8.538 8.538 0 00-1.884 1.884.556.556 0 01-.781.121.556.556 0 01-.12-.781c3.164-4.34 9.252-5.29 13.593-2.126a9.856 9.856 0 012.125 2.126.556.556 0 01-.443.886z"/><path d="M61.504 67.906a3.76 3.76 0 01-3.76-3.76 3.76 3.76 0 013.76-3.761 3.76 3.76 0 013.761 3.76 3.77 3.77 0 01-3.76 3.761zm0-6.402a2.646 2.646 0 00-2.65 2.65 2.646 2.646 0 105.29-.008 2.643 2.643 0 00-2.64-2.642z"/></g><defs><linearGradient id="paint0_linear" x1="-4.489" y1="61.435" x2="123.144" y2="63.092" gradientUnits="userSpaceOnUse"><stop offset=".708" stop-color="#FF0084"/><stop offset=".984" stop-color="#4B00E1"/><stop offset=".984" stop-color="#4B00E1"/></linearGradient><linearGradient id="paint1_linear" x1="61.435" y1="127.359" x2="59.778" y2="-.275" gradientUnits="userSpaceOnUse"><stop offset=".708" stop-color="#FF0084"/><stop offset=".984" stop-color="#4B00E1"/><stop offset=".984" stop-color="#4B00E1"/></linearGradient><clipPath id="clip0"><path fill="#fff" transform="translate(42 42)" d="M0 0h39v39H0z"/></clipPath></defs></svg>