<svg width="123" height="123" fill="none"
    xmlns="http://www.w3.org/2000/svg">
    <circle cx="61.435" cy="61.435" r="60.935" stroke="#4B00E1" stroke-opacity=".6"/>
    <mask id="a" fill="#fff">
        <path d="M122.478 61.435a.39.39 0 01.39.392A61.428 61.428 0 0182.21 119.25a61.42 61.42 0 01-24.29 3.519.39.39 0 01-.367-.415c.014-.216.2-.38.416-.367a60.654 60.654 0 0064.115-60.16.395.395 0 01.394-.392z"/>
    </mask>
    <path d="M122.478 61.435a.39.39 0 01.39.392A61.428 61.428 0 0182.21 119.25a61.42 61.42 0 01-24.29 3.519.39.39 0 01-.367-.415c.014-.216.2-.38.416-.367a60.654 60.654 0 0064.115-60.16.395.395 0 01.394-.392z" stroke="url(#paint0_linear)" stroke-width="2" mask="url(#a)"/>
    <mask id="b" fill="#fff">
        <path d="M61.435.392a.39.39 0 00-.392-.39A61.435 61.435 0 00.101 64.95a.39.39 0 00.415.367c.216-.014.38-.2.368-.417A60.65 60.65 0 0161.044.785a.394.394 0 00.391-.393z"/>
    </mask>
    <path d="M61.435.392a.39.39 0 00-.392-.39A61.435 61.435 0 00.101 64.95a.39.39 0 00.415.367c.216-.014.38-.2.368-.417A60.65 60.65 0 0161.044.785a.394.394 0 00.391-.393z" stroke="url(#paint1_linear)" stroke-width="2" mask="url(#b)"/>
    <circle cx="110.637" cy="25.363" r="2.363" fill="#FB0086"/>
    <circle cx="18.012" cy="104.756" r="2.363" fill="#FB0086"/>
    <g clip-path="url(#clip0)" fill="#fff">
        <path d="M78.336 49.932v-5.966c0-1.083-.898-1.966-2-1.966h-28c-2.578 0-4.664 2.058-4.664 4.584v12.07C42.07 59.192 41 59.967 41 61.004v15.725c0 2.25 5.008 3.279 9.664 3.279s9.664-1.021 9.664-3.279v-.653h17.336c1.844 0 3.328-1.466 3.336-3.278V53.14c0-1.558-1.117-2.902-2.664-3.21zm-30-6.619h28c.367 0 .664.292.664.653v1.965H47a.658.658 0 00-.664.653c0 .36.297.653.664.653h30v2.618H48.336c-1.844 0-3.336-1.467-3.336-3.279 0-1.812 1.492-3.263 3.336-3.263zm2.328 15.725c5.5 0 8.336 1.375 8.336 1.966s-2.836 1.965-8.336 1.965-8.328-1.382-8.328-1.965c0-.591 2.836-1.966 8.328-1.966zM59 64.935c0 .591-2.836 1.966-8.336 1.966s-8.328-1.382-8.328-1.966V62.77c1.797 1.029 5.148 1.505 8.336 1.505 3.187 0 6.531-.484 8.336-1.505v2.165H59zm-8.336 3.271c3.188 0 6.531-.484 8.336-1.505v2.165c0 .592-2.836 1.966-8.336 1.966s-8.328-1.382-8.328-1.966v-2.165c1.797 1.029 5.148 1.505 8.328 1.505zm-8.328 2.426c1.797 1.022 5.148 1.505 8.336 1.505 3.187 0 6.531-.483 8.336-1.505v2.166c0 .591-2.836 1.965-8.336 1.965s-8.336-1.382-8.336-1.965v-2.166zM59 76.73c0 .591-2.836 1.966-8.336 1.966s-8.328-1.382-8.328-1.966v-2.165c1.797 1.029 5.148 1.505 8.336 1.505 3.187 0 6.531-.484 8.336-1.505v2.165H59zm18.664-1.966H60.336v-13.76c0-2.249-5.008-3.278-9.664-3.278a26.94 26.94 0 00-5.664.56v-8.491a4.697 4.697 0 003.336 1.382H77.68c1.101 0 2 .883 2 1.965v6.55h-3.336c-1.844 0-3.336 1.466-3.336 3.278 0 1.813 1.492 3.28 3.336 3.28h3.336v6.549c0 .522-.211 1.021-.586 1.39-.39.368-.899.575-1.43.575zm2-9.828h-3.336c-1.101 0-2-.883-2-1.966 0-1.082.899-1.965 2-1.965h3.336v3.931z"/>
        <path d="M76.336 63.622A.658.658 0 0077 62.97a.658.658 0 00-.664-.652.658.658 0 00-.664.652c0 .36.297.653.664.653z"/>
    </g>
    <defs>
        <linearGradient id="paint0_linear" x1="-4.489" y1="61.435" x2="123.144" y2="63.092" gradientUnits="userSpaceOnUse">
            <stop offset=".708" stop-color="#FF0084"/>
            <stop offset=".984" stop-color="#4B00E1"/>
            <stop offset=".984" stop-color="#4B00E1"/>
        </linearGradient>
        <linearGradient id="paint1_linear" x1="61.435" y1="127.359" x2="59.778" y2="-.275" gradientUnits="userSpaceOnUse">
            <stop offset=".708" stop-color="#FF0084"/>
            <stop offset=".984" stop-color="#4B00E1"/>
            <stop offset=".984" stop-color="#4B00E1"/>
        </linearGradient>
        <clipPath id="clip0">
            <path fill="#fff" transform="translate(41 42)" d="M0 0h40v38H0z"/>
        </clipPath>
    </defs>
</svg>