<svg width="18" height="18" fill="none" xmlns="http://www.w3.org/2000/svg"><path d="M12.06 3.24h-1.71c.09-.81-.18-1.53-.81-2.16a2.716 2.716 0 00-3.87 0l-.54.54-.54-.54C3.6 0 1.89 0 .81 1.08.27 1.62 0 2.25 0 2.97s.27 1.44.81 1.89l1.35 1.35c-.45.81-.63 1.71-.63 2.7 0 3.15 2.52 5.67 5.67 5.67h.81L11.7 18v-3.42h.45c3.15 0 5.67-2.52 5.67-5.67s-2.61-5.67-5.76-5.67zM1.53 1.8c.36-.27.72-.45 1.17-.45.45 0 .9.18 1.17.45l1.26 1.26L6.48 1.8c.63-.63 1.71-.63 2.34 0 .36.36.45.72.45 1.17 0 .45-.18.9-.45 1.17l-3.6 3.6-3.6-3.6C.9 3.51.9 2.43 1.53 1.8zm10.53 11.7h-1.44v2.07L8.37 13.5H7.11c-2.52 0-4.59-2.07-4.59-4.59 0-.63.18-1.26.36-1.89l2.25 2.25 4.41-4.41c.18-.18.36-.36.45-.63h2.07c2.52 0 4.59 2.07 4.59 4.59s-1.98 4.68-4.59 4.68z" fill="#4B00E1"/><path d="M7.92 10.8a.916.916 0 01-.9-.9c0-.485.415-.9.9-.9.484 0 .9.415.9.9 0 .485-.416.9-.9.9zm0-1.246c-.208 0-.346.138-.346.346 0 .208.138.346.346.346.208 0 .346-.138.346-.346 0-.208-.138-.346-.346-.346zM10.8 10.8a.916.916 0 01-.9-.9c0-.485.346-.9.9-.9.485 0 .9.415.9.9 0 .485-.415.9-.9.9zm0-1.246c-.208 0-.346.138-.346.346 0 .208.138.346.346.346.208 0 .346-.138.346-.346 0-.208-.208-.346-.346-.346zm2.79 1.246a.916.916 0 01-.9-.9c0-.485.415-.9.9-.9.484 0 .9.415.9.9 0 .485-.347.9-.9.9zm0-1.246c-.208 0-.347.138-.347.346 0 .208.139.346.347.346.207 0 .346-.138.346-.346 0-.208-.139-.346-.346-.346z" fill="#FF0084"/></svg>