<svg width="18" height="18" fill="none" xmlns="http://www.w3.org/2000/svg"><path d="M17.242 1.421a.648.648 0 01-.663-.663A.747.747 0 0015.82 0a.747.747 0 00-.758.758.648.648 0 01-.663.663.747.747 0 00-.758.758c0 .379.379.758.758.758s.663.284.663.663c0 .474.38.758.758.758a.747.747 0 00.758-.758c0-.379.284-.663.663-.663A.747.747 0 0018 2.179c0-.379-.379-.758-.758-.758zm-1.421 1.705c-.19-.379-.474-.758-.947-.947.379-.19.758-.474.947-.947.19.379.474.757.947.947-.473.19-.852.474-.947.947z" fill="#FF0084"/><path d="M2.448 18c-.253 0-.506-.253-.506-.507V15.13C.338 14.539 0 13.694 0 13.104c0-.17.084-.254.169-.338.084-.085.169-.085.338-.085H.76a1.7 1.7 0 00.76-.168c.084-.085.084-.254 0-.507-.254-1.097-.254-2.786-.254-2.786 0-2.279.338-3.967 1.013-5.318C3.292 1.876 4.981.947 7.43.947c2.448 0 4.22.929 5.234 2.87.675 1.267 1.013 3.04 1.013 5.319 0 .169-.085 1.773-.338 2.786-.084.253-.084.422.085.506.168.17.506.17.76.17h.168c.17 0 .253 0 .338.083.084.085.169.254.169.338 0 .591-.338 1.435-1.942 2.11v2.364c0 .254-.253.507-.506.507H2.448zm9.54-.929v-2.363a.666.666 0 00-.676-.676H8.78c-.17.591-.76 1.013-1.351 1.013s-1.182-.422-1.35-1.013H3.545a.666.666 0 00-.676.676v1.181h1.435l-.084.085v.084c-.084.253 0 .422.169.507l.253.169H2.955v.253h9.033v.084zm-10.89-3.545c.168.253.506.422.844.59.168-.675.844-1.097 1.52-1.097h2.447v-.338c-1.688-.59-2.785-2.11-2.785-3.883v-1.52c0-.253.168-.421.337-.506C4.727 6.434 5.91 5.675 6.67 4.577c.253-.169.422-.253.591-.253h.084l.591.084c2.11.338 3.715 2.195 3.715 4.39 0 1.773-1.098 3.293-2.786 3.883v.338h2.448c.676 0 1.35.422 1.52 1.098.422-.17.675-.423.844-.591-.338-.085-.76-.17-1.013-.507-.253-.253-.422-.675-.253-1.435.168-.844.253-2.28.253-2.533 0-2.11-.338-3.714-.929-4.811-.844-1.604-2.28-2.364-4.305-2.364-2.026 0-3.461.844-4.306 2.364-.675 1.181-.928 2.785-.928 4.896 0 0 0 1.604.253 2.533.169.76 0 1.181-.253 1.435-.338.253-.76.422-1.098.422zM4.22 8.798c0 1.435 1.013 2.702 2.364 3.124.253.084.337.253.337.422v1.266c0 .253.17.422.422.422.254 0 .423-.169.423-.422v-1.266c0-.253.168-.422.337-.422 1.435-.338 2.364-1.604 2.364-3.124 0-1.688-1.182-3.123-2.87-3.461h-.17c-.759 1.013-1.94 1.857-3.207 2.28v1.181z" fill="#4B00E1"/></svg>