<svg width="123" height="123" fill="none" xmlns="http://www.w3.org/2000/svg"><circle cx="61.435" cy="61.435" r="60.935" stroke="#4B00E1" stroke-opacity=".6"/><mask id="a" fill="#fff"><path d="M122.478 61.435a.39.39 0 01.39.392A61.428 61.428 0 0182.21 119.25a61.42 61.42 0 01-24.29 3.519.39.39 0 01-.367-.415c.014-.216.2-.38.416-.367a60.654 60.654 0 0064.115-60.16.395.395 0 01.394-.392z"/></mask><path d="M122.478 61.435a.39.39 0 01.39.392A61.428 61.428 0 0182.21 119.25a61.42 61.42 0 01-24.29 3.519.39.39 0 01-.367-.415c.014-.216.2-.38.416-.367a60.654 60.654 0 0064.115-60.16.395.395 0 01.394-.392z" stroke="url(#paint0_linear)" stroke-width="2" mask="url(#a)"/><mask id="b" fill="#fff"><path d="M61.435.392a.39.39 0 00-.392-.39A61.435 61.435 0 00.101 64.95a.39.39 0 00.415.367c.216-.014.38-.2.368-.417A60.651 60.651 0 0161.044.785a.394.394 0 00.391-.393z"/></mask><path d="M61.435.392a.39.39 0 00-.392-.39A61.435 61.435 0 00.101 64.95a.39.39 0 00.415.367c.216-.014.38-.2.368-.417A60.651 60.651 0 0161.044.785a.394.394 0 00.391-.393z" stroke="url(#paint1_linear)" stroke-width="2" mask="url(#b)"/><circle cx="111.186" cy="24.838" r="2.363" fill="#FB0086"/><circle cx="18.561" cy="104.231" r="2.363" fill="#FB0086"/><path d="M68.685 69.612C72.475 67.25 75 63.075 75 58.332 75 50.981 68.945 45 61.497 45S48 50.981 48 58.331c0 4.75 2.525 8.919 6.315 11.281L51.17 73.52a2.144 2.144 0 00-.253 2.293A2.09 2.09 0 0052.803 77H70.19c.804 0 1.525-.456 1.886-1.188a2.133 2.133 0 00-.254-2.293l-3.138-3.907zm-19.603-11.28c0-6.763 5.568-12.27 12.421-12.27s12.421 5.5 12.421 12.27c0 6.768-5.568 12.268-12.42 12.268-6.854 0-12.422-5.5-12.422-12.269zm22.02 17.018a.993.993 0 01-.911.581H52.803a1 1 0 01-.911-.581c-.146-.306-.197-.769.126-1.162l3.246-4.032a13.574 13.574 0 006.24 1.513c2.245 0 4.372-.55 6.238-1.513l3.246 4.031c.31.394.266.857.114 1.163z" fill="#fff"/><path d="M68.52 58.331c0-3.825-3.15-6.931-7.017-6.931-3.866 0-7.017 3.112-7.017 6.931s3.151 6.931 7.017 6.931c3.866 0 7.017-3.106 7.017-6.93zm-12.958 0c0-3.237 2.663-5.869 5.941-5.869s5.942 2.632 5.942 5.87c0 3.237-2.664 5.868-5.942 5.868s-5.941-2.631-5.941-5.869z" fill="#fff"/><path d="M65.28 58.331c0-2.056-1.695-3.731-3.777-3.731s-3.777 1.675-3.777 3.731 1.695 3.731 3.777 3.731c2.082.007 3.778-1.668 3.778-3.73zm-6.479 0c0-1.469 1.209-2.669 2.702-2.669 1.493 0 2.702 1.194 2.702 2.67 0 1.468-1.209 2.668-2.702 2.668-1.493 0-2.702-1.194-2.702-2.669z" fill="#fff"/><defs><linearGradient id="paint0_linear" x1="-4.489" y1="61.435" x2="123.144" y2="63.092" gradientUnits="userSpaceOnUse"><stop offset=".708" stop-color="#FF0084"/><stop offset=".984" stop-color="#4B00E1"/><stop offset=".984" stop-color="#4B00E1"/></linearGradient><linearGradient id="paint1_linear" x1="61.435" y1="127.359" x2="59.778" y2="-.275" gradientUnits="userSpaceOnUse"><stop offset=".708" stop-color="#FF0084"/><stop offset=".984" stop-color="#4B00E1"/><stop offset=".984" stop-color="#4B00E1"/></linearGradient></defs></svg>