<svg width="124" height="124" fill="none" xmlns="http://www.w3.org/2000/svg"><circle cx="62.237" cy="62.226" r="60.935" stroke="#4B00E1" stroke-opacity=".6"/><mask id="a" fill="#fff"><path d="M123.279 62.226a.39.39 0 01.391.392 61.447 61.447 0 01-19.396 44.409 61.441 61.441 0 01-45.553 16.533.39.39 0 01-.366-.414c.014-.216.2-.38.416-.368a60.654 60.654 0 0059.123-36.453 60.652 60.652 0 004.992-23.707.395.395 0 01.393-.392z"/></mask><path d="M123.279 62.226a.39.39 0 01.391.392 61.447 61.447 0 01-19.396 44.409 61.441 61.441 0 01-45.553 16.533.39.39 0 01-.366-.414c.014-.216.2-.38.416-.368a60.654 60.654 0 0059.123-36.453 60.652 60.652 0 004.992-23.707.395.395 0 01.393-.392z" stroke="url(#paint0_linear)" stroke-width="2" mask="url(#a)"/><mask id="b" fill="#fff"><path d="M62.237 1.183a.39.39 0 00-.392-.39A61.435 61.435 0 00.903 65.742a.39.39 0 00.415.366c.216-.014.38-.2.367-.416a60.651 60.651 0 0160.16-64.115.394.394 0 00.392-.393z"/></mask><path d="M62.237 1.183a.39.39 0 00-.392-.39A61.435 61.435 0 00.903 65.742a.39.39 0 00.415.366c.216-.014.38-.2.367-.416a60.651 60.651 0 0160.16-64.115.394.394 0 00.392-.393z" stroke="url(#paint1_linear)" stroke-width="2" mask="url(#b)"/><circle cx="111.858" cy="25.838" r="2.363" fill="#FB0086"/><circle cx="19.233" cy="105.231" r="2.363" fill="#FB0086"/><g clip-path="url(#clip0)"><path d="M78.673 61.3l-15.93-13.167a1.386 1.386 0 00-1.777 0l-4.076 3.374V49.76a.678.678 0 00-.681-.68H52.28a.684.684 0 00-.681.68v6.12l-6.564 5.42a.687.687 0 00-.099.959.66.66 0 00.524.25c.148 0 .305-.05.424-.15l3.405-2.816v17.171c0 .38.306.689.671.689h23.75c.374 0 .68-.31.68-.689v-17.17l3.406 2.814a.677.677 0 00.948-.1.667.667 0 00-.07-.958zM52.962 50.44h2.576v2.186l-2.576 2.126V50.44zm20.095 25.586H50.652v-17.6l10.62-8.785a.9.9 0 011.155 0l10.62 8.775v17.61h.01z" fill="#fff"/></g><defs><linearGradient id="paint0_linear" x1="-3.688" y1="62.226" x2="123.946" y2="63.884" gradientUnits="userSpaceOnUse"><stop offset=".708" stop-color="#FF0084"/><stop offset=".984" stop-color="#4B00E1"/><stop offset=".984" stop-color="#4B00E1"/></linearGradient><linearGradient id="paint1_linear" x1="62.237" y1="128.151" x2="60.58" y2=".517" gradientUnits="userSpaceOnUse"><stop offset=".708" stop-color="#FF0084"/><stop offset=".984" stop-color="#4B00E1"/><stop offset=".984" stop-color="#4B00E1"/></linearGradient><clipPath id="clip0"><path fill="#fff" transform="translate(44.792 47.816)" d="M0 0h34.13v29.58H0z"/></clipPath></defs></svg>