<svg width="124" height="123" fill="none" xmlns="http://www.w3.org/2000/svg"><circle cx="61.722" cy="61.555" r="60.935" stroke="#4B00E1" stroke-opacity=".6"/><mask id="a" fill="#fff"><path d="M122.765 61.555a.39.39 0 01.391.392 61.43 61.43 0 01-19.397 44.409 61.435 61.435 0 01-45.552 16.534.39.39 0 01-.367-.415c.014-.216.2-.38.416-.368a60.654 60.654 0 0059.124-36.453 60.651 60.651 0 004.991-23.706.395.395 0 01.394-.393z"/></mask><path d="M122.765 61.555a.39.39 0 01.391.392 61.43 61.43 0 01-19.397 44.409 61.435 61.435 0 01-45.552 16.534.39.39 0 01-.367-.415c.014-.216.2-.38.416-.368a60.654 60.654 0 0059.124-36.453 60.651 60.651 0 004.991-23.706.395.395 0 01.394-.393z" stroke="url(#paint0_linear)" stroke-width="2" mask="url(#a)"/><mask id="b" fill="#fff"><path d="M61.722.513a.39.39 0 00-.392-.391A61.435 61.435 0 00.388 65.07a.39.39 0 00.415.366c.216-.014.38-.2.367-.416A60.651 60.651 0 0161.33.906a.394.394 0 00.392-.393z"/></mask><path d="M61.722.513a.39.39 0 00-.392-.391A61.435 61.435 0 00.388 65.07a.39.39 0 00.415.366c.216-.014.38-.2.367-.416A60.651 60.651 0 0161.33.906a.394.394 0 00.392-.393z" stroke="url(#paint1_linear)" stroke-width="2" mask="url(#b)"/><circle cx="111.343" cy="25.167" r="2.363" fill="#FB0086"/><circle cx="18.717" cy="104.56" r="2.363" fill="#FB0086"/><g clip-path="url(#clip0)"><path d="M38.773 77.062h45.85c.933 0 1.72-.799 1.72-1.748V45.346c0-.95-.787-1.748-1.72-1.748h-45.85c-.934 0-1.72.799-1.72 1.748v29.968c0 .95.787 1.748 1.72 1.748zm-.245-31.716c0-.15.098-.25.245-.25h45.85c.147 0 .245.1.245.25v29.968c0 .15-.098.25-.246.25H38.773c-.147 0-.245-.1-.245-.25V45.346zM90.077 78.41v1.398c0 .35-.295.65-.639.65H34.007a.656.656 0 01-.64-.65V78.41h23.294c.098.4.491.699.884.699H65.9c.443 0 .787-.3.885-.7h23.293z" fill="#fff"/></g><defs><linearGradient id="paint0_linear" x1="-4.202" y1="61.555" x2="123.432" y2="63.213" gradientUnits="userSpaceOnUse"><stop offset=".708" stop-color="#FF0084"/><stop offset=".984" stop-color="#4B00E1"/><stop offset=".984" stop-color="#4B00E1"/></linearGradient><linearGradient id="paint1_linear" x1="61.722" y1="127.48" x2="60.064" y2="-.154" gradientUnits="userSpaceOnUse"><stop offset=".708" stop-color="#FF0084"/><stop offset=".984" stop-color="#4B00E1"/><stop offset=".984" stop-color="#4B00E1"/></linearGradient><clipPath id="clip0"><path fill="#fff" transform="translate(33.368 43.598)" d="M0 0h56.709v36.861H0z"/></clipPath></defs></svg>