<svg width="124" height="123" fill="none" xmlns="http://www.w3.org/2000/svg"><circle cx="62.075" cy="61.555" r="60.935" stroke="#4B00E1" stroke-opacity=".6"/><mask id="a" fill="#fff"><path d="M123.117 61.555a.39.39 0 01.391.392 61.447 61.447 0 01-19.396 44.409 61.443 61.443 0 01-45.553 16.534.39.39 0 01-.366-.415c.013-.216.2-.38.416-.368a60.653 60.653 0 0064.115-60.16.394.394 0 01.393-.392z"/></mask><path d="M123.117 61.555a.39.39 0 01.391.392 61.447 61.447 0 01-19.396 44.409 61.443 61.443 0 01-45.553 16.534.39.39 0 01-.366-.415c.013-.216.2-.38.416-.368a60.653 60.653 0 0064.115-60.16.394.394 0 01.393-.392z" stroke="url(#paint0_linear)" stroke-width="2" mask="url(#a)"/><mask id="b" fill="#fff"><path d="M62.075.513a.39.39 0 00-.392-.391A61.435 61.435 0 00.74 65.07a.39.39 0 00.415.366c.216-.014.38-.2.367-.416A60.651 60.651 0 0161.683.906a.394.394 0 00.392-.393z"/></mask><path d="M62.075.513a.39.39 0 00-.392-.391A61.435 61.435 0 00.74 65.07a.39.39 0 00.415.366c.216-.014.38-.2.367-.416A60.651 60.651 0 0161.683.906a.394.394 0 00.392-.393z" stroke="url(#paint1_linear)" stroke-width="2" mask="url(#b)"/><circle cx="111.695" cy="25.167" r="2.363" fill="#FB0086"/><circle cx="19.07" cy="104.56" r="2.363" fill="#FB0086"/><g clip-path="url(#clip0)" fill="#fff"><path d="M52.422 71.133a.988.988 0 01-.347-.069c-6.004-2.4-9.89-8.13-9.89-14.587 0-8.668 7.061-15.715 15.738-15.715 8.676 0 15.73 7.047 15.73 15.715 0 5.191-2.577 10.063-6.88 13.018a.914.914 0 01-1.285-.242.92.92 0 01.243-1.283 13.954 13.954 0 006.074-11.493c0-7.645-6.23-13.869-13.882-13.869-7.653 0-13.882 6.224-13.882 13.869a13.792 13.792 0 008.728 12.87.917.917 0 01.512 1.197.922.922 0 01-.859.59z"/><path d="M58.842 62.951h-4.624a.929.929 0 01-.928-.927.93.93 0 01.928-.928h4.624a1.849 1.849 0 001.848-1.846 1.849 1.849 0 00-1.848-1.846h-1.848a3.7 3.7 0 110-7.402h4.625c.512 0 .928.416.928.927a.929.929 0 01-.928.928h-4.625a1.849 1.849 0 00-1.848 1.846c0 1.023.833 1.846 1.848 1.846h1.848a3.701 3.701 0 110 7.402z"/><path d="M57.922 51.857a.929.929 0 01-.928-.928v-3.692a.929.929 0 011.857 0v3.701a.933.933 0 01-.928.919zm0 14.795a.929.929 0 01-.928-.927v-3.701a.929.929 0 011.857 0v3.7a.934.934 0 01-.928.928zM41.264 83.294a.918.918 0 01-.78-.424.915.915 0 01.286-1.275l20.363-12.94a.923.923 0 011.154.13l6.75 6.743 14.15-14.137a.922.922 0 011.311 0 .92.92 0 010 1.309L69.679 77.478a.922.922 0 01-1.31 0l-6.88-6.873-19.73 12.542a.94.94 0 01-.495.147z"/><path d="M83.83 70.344a.929.929 0 01-.929-.927v-6.466H76.43a.929.929 0 01-.928-.927c0-.512.416-.928.928-.928h7.4c.513 0 .929.416.929.928v7.393c0 .52-.416.927-.928.927z"/></g><defs><linearGradient id="paint0_linear" x1="-3.85" y1="61.555" x2="123.784" y2="63.213" gradientUnits="userSpaceOnUse"><stop offset=".708" stop-color="#FF0084"/><stop offset=".984" stop-color="#4B00E1"/><stop offset=".984" stop-color="#4B00E1"/></linearGradient><linearGradient id="paint1_linear" x1="62.075" y1="127.48" x2="60.417" y2="-.154" gradientUnits="userSpaceOnUse"><stop offset=".708" stop-color="#FF0084"/><stop offset=".984" stop-color="#4B00E1"/><stop offset=".984" stop-color="#4B00E1"/></linearGradient><clipPath id="clip0"><path fill="#fff" transform="translate(40.336 40.762)" d="M0 0h44.422v42.532H0z"/></clipPath></defs></svg>