<svg width="123" height="123" fill="none" xmlns="http://www.w3.org/2000/svg"><circle cx="61.435" cy="61.435" r="60.935" stroke="#4B00E1" stroke-opacity=".6"/><mask id="a" fill="#fff"><path d="M122.478 61.435a.39.39 0 01.39.392A61.428 61.428 0 0182.21 119.25a61.42 61.42 0 01-24.29 3.519.39.39 0 01-.367-.415c.014-.216.2-.38.416-.367a60.654 60.654 0 0064.115-60.16.395.395 0 01.394-.392z"/></mask><path d="M122.478 61.435a.39.39 0 01.39.392A61.428 61.428 0 0182.21 119.25a61.42 61.42 0 01-24.29 3.519.39.39 0 01-.367-.415c.014-.216.2-.38.416-.367a60.654 60.654 0 0064.115-60.16.395.395 0 01.394-.392z" stroke="url(#paint0_linear)" stroke-width="2" mask="url(#a)"/><mask id="b" fill="#fff"><path d="M61.435.392a.39.39 0 00-.392-.39A61.435 61.435 0 00.101 64.95a.39.39 0 00.415.367c.216-.014.38-.2.368-.417A60.651 60.651 0 0161.044.785a.394.394 0 00.391-.393z"/></mask><path d="M61.435.392a.39.39 0 00-.392-.39A61.435 61.435 0 00.101 64.95a.39.39 0 00.415.367c.216-.014.38-.2.368-.417A60.651 60.651 0 0161.044.785a.394.394 0 00.391-.393z" stroke="url(#paint1_linear)" stroke-width="2" mask="url(#b)"/><circle cx="111.056" cy="25.047" r="2.363" fill="#FB0086"/><circle cx="18.431" cy="104.44" r="2.363" fill="#FB0086"/><g clip-path="url(#clip0)"><path d="M69.906 54.883a1.02 1.02 0 00-.859-.273 1.003 1.003 0 00-.725.525 11.54 11.54 0 01-1.877 2.636c.073-.564.113-1.135.113-1.706 0-1.096-.147-2.225-.44-3.354a13.48 13.48 0 00-6.876-8.606 1.013 1.013 0 00-.945.013.992.992 0 00-.513.79 11.41 11.41 0 01-4.78 8.414 15.067 15.067 0 01-.32.232c-.012.007-.02.014-.032.02a13.523 13.523 0 00-4.16 4.802A13.462 13.462 0 0047 64.53c0 1.096.146 2.225.44 3.354A13.474 13.474 0 0060.5 77.999c7.442 0 13.5-6.043 13.5-13.468 0-3.659-1.458-7.085-4.094-9.648zM60.5 76.006a11.495 11.495 0 01-11.13-8.612 11.644 11.644 0 01-.373-2.856c0-1.833.433-3.592 1.278-5.24a11.604 11.604 0 013.808-4.276c.033-.026.066-.046.093-.066a13.42 13.42 0 005.392-8.328 11.482 11.482 0 014.62 6.594c.246.97.373 1.926.373 2.856 0 1.361-.253 2.716-.746 4.024a1.003 1.003 0 001.471 1.195 13.552 13.552 0 004.108-4.024 11.337 11.337 0 012.609 7.272c0 6.315-5.16 11.462-11.503 11.462z" fill="#fff"/></g><defs><linearGradient id="paint0_linear" x1="-4.489" y1="61.435" x2="123.144" y2="63.092" gradientUnits="userSpaceOnUse"><stop offset=".708" stop-color="#FF0084"/><stop offset=".984" stop-color="#4B00E1"/><stop offset=".984" stop-color="#4B00E1"/></linearGradient><linearGradient id="paint1_linear" x1="61.435" y1="127.359" x2="59.778" y2="-.275" gradientUnits="userSpaceOnUse"><stop offset=".708" stop-color="#FF0084"/><stop offset=".984" stop-color="#4B00E1"/><stop offset=".984" stop-color="#4B00E1"/></linearGradient><clipPath id="clip0"><path fill="#fff" transform="translate(47 44)" d="M0 0h27v34H0z"/></clipPath></defs></svg>