<svg width="123" height="123" fill="none" xmlns="http://www.w3.org/2000/svg"><circle cx="61.435" cy="61.435" r="60.935" stroke="#4B00E1" stroke-opacity=".6"/><mask id="a" fill="#fff"><path d="M122.478 61.435a.39.39 0 01.39.392A61.428 61.428 0 0182.21 119.25a61.42 61.42 0 01-24.29 3.519.39.39 0 01-.367-.415c.014-.216.2-.38.416-.367a60.654 60.654 0 0064.115-60.16.395.395 0 01.394-.392z"/></mask><path d="M122.478 61.435a.39.39 0 01.39.392A61.428 61.428 0 0182.21 119.25a61.42 61.42 0 01-24.29 3.519.39.39 0 01-.367-.415c.014-.216.2-.38.416-.367a60.654 60.654 0 0064.115-60.16.395.395 0 01.394-.392z" stroke="url(#paint0_linear)" stroke-width="2" mask="url(#a)"/><mask id="b" fill="#fff"><path d="M61.435.392a.39.39 0 00-.392-.39A61.435 61.435 0 00.101 64.95a.39.39 0 00.415.367c.216-.014.38-.2.368-.417A60.651 60.651 0 0161.044.785a.394.394 0 00.391-.393z"/></mask><path d="M61.435.392a.39.39 0 00-.392-.39A61.435 61.435 0 00.101 64.95a.39.39 0 00.415.367c.216-.014.38-.2.368-.417A60.651 60.651 0 0161.044.785a.394.394 0 00.391-.393z" stroke="url(#paint1_linear)" stroke-width="2" mask="url(#b)"/><circle cx="111.056" cy="25.047" r="2.363" fill="#FB0086"/><circle cx="18.431" cy="104.44" r="2.363" fill="#FB0086"/><path d="M61 76c-.485 0-.95-.171-1.315-.487a397.6 397.6 0 00-3.865-3.3l-.006-.007c-3.427-2.891-6.382-5.394-8.44-7.857C45.068 61.596 44 58.988 44 56.136c0-2.773.956-5.328 2.696-7.199 1.76-1.896 4.177-2.937 6.8-2.937 1.966 0 3.759.612 5.34 1.831.796.612 1.52 1.363 2.157 2.24a10.885 10.885 0 012.159-2.24C64.745 46.612 66.538 46 68.504 46c2.623 0 5.04 1.04 6.8 2.937 1.74 1.87 2.696 4.426 2.696 7.2 0 2.85-1.07 5.459-3.373 8.212-2.059 2.463-5.014 4.966-8.44 7.857-1.17.988-2.497 2.108-3.872 3.307-.365.316-.83.487-1.315.487zm-7.504-28.024c-2.059 0-3.958.816-5.332 2.298-1.401 1.509-2.172 3.59-2.172 5.862 0 2.397.897 4.545 2.915 6.955 1.946 2.332 4.848 4.782 8.202 7.614l.006.006c1.176.995 2.504 2.115 3.885 3.313 1.395-1.205 2.723-2.325 3.898-3.32 3.354-2.838 6.249-5.281 8.201-7.613 2.012-2.41 2.915-4.558 2.915-6.955 0-2.272-.77-4.353-2.171-5.862-1.381-1.482-3.28-2.298-5.34-2.298-1.513 0-2.901.474-4.123 1.416-1.089.836-1.853 1.897-2.298 2.634-.232.382-.63.606-1.082.606-.452 0-.85-.23-1.082-.606-.445-.744-1.209-1.798-2.298-2.634-1.222-.942-2.61-1.416-4.124-1.416z" fill="#fff"/><defs><linearGradient id="paint0_linear" x1="-4.489" y1="61.435" x2="123.144" y2="63.092" gradientUnits="userSpaceOnUse"><stop offset=".708" stop-color="#FF0084"/><stop offset=".984" stop-color="#4B00E1"/><stop offset=".984" stop-color="#4B00E1"/></linearGradient><linearGradient id="paint1_linear" x1="61.435" y1="127.359" x2="59.778" y2="-.275" gradientUnits="userSpaceOnUse"><stop offset=".708" stop-color="#FF0084"/><stop offset=".984" stop-color="#4B00E1"/><stop offset=".984" stop-color="#4B00E1"/></linearGradient></defs></svg>