<svg width="123" height="123" fill="none" xmlns="http://www.w3.org/2000/svg"><circle cx="61.435" cy="61.435" r="60.935" stroke="#4B00E1" stroke-opacity=".6"/><mask id="a" fill="#fff"><path d="M122.478 61.435a.39.39 0 01.39.392A61.428 61.428 0 0182.21 119.25a61.42 61.42 0 01-24.29 3.519.39.39 0 01-.367-.415c.014-.216.2-.38.416-.367a60.654 60.654 0 0064.115-60.16.395.395 0 01.394-.392z"/></mask><path d="M122.478 61.435a.39.39 0 01.39.392A61.428 61.428 0 0182.21 119.25a61.42 61.42 0 01-24.29 3.519.39.39 0 01-.367-.415c.014-.216.2-.38.416-.367a60.654 60.654 0 0064.115-60.16.395.395 0 01.394-.392z" stroke="url(#paint0_linear)" stroke-width="2" mask="url(#a)"/><mask id="b" fill="#fff"><path d="M61.435.392a.39.39 0 00-.392-.39A61.435 61.435 0 00.101 64.95a.39.39 0 00.415.367c.216-.014.38-.2.368-.417A60.651 60.651 0 0161.044.785a.394.394 0 00.391-.393z"/></mask><path d="M61.435.392a.39.39 0 00-.392-.39A61.435 61.435 0 00.101 64.95a.39.39 0 00.415.367c.216-.014.38-.2.368-.417A60.651 60.651 0 0161.044.785a.394.394 0 00.391-.393z" stroke="url(#paint1_linear)" stroke-width="2" mask="url(#b)"/><circle cx="111.186" cy="24.838" r="2.363" fill="#FB0086"/><circle cx="18.561" cy="104.231" r="2.363" fill="#FB0086"/><path d="M81.953 73.854l-2.906-6.741a2.935 2.935 0 00-1.406-1.468c.523-.528.843-1.25.843-2.043v-15.69A2.922 2.922 0 0075.554 45H48.446a2.922 2.922 0 00-2.93 2.913v15.689c0 .792.32 1.515.844 2.043a2.935 2.935 0 00-1.406 1.468l-2.906 6.741a.564.564 0 00-.047.233A2.922 2.922 0 0044.93 77h34.14A2.922 2.922 0 0082 74.087a.619.619 0 00-.047-.233zM46.687 47.913c0-.963.79-1.748 1.758-1.748h27.11c.968 0 1.757.785 1.757 1.748v15.689c0 .963-.789 1.748-1.757 1.748h-27.11a1.755 1.755 0 01-1.758-1.748v-15.69zm-.656 19.658a1.75 1.75 0 011.617-1.056h28.704c.703 0 1.335.419 1.617 1.056l2.554 5.934H43.477l2.554-5.934zM64.93 74.67v1.165h-5.86V74.67h5.86zm-21.657 0h14.625v1.165H44.93a1.76 1.76 0 01-1.657-1.165zm35.797 1.165H66.102V74.67h14.625a1.76 1.76 0 01-1.657 1.165z" fill="#fff"/><path d="M46.64 71.175h2.344c.32 0 .586-.264.586-.583a.588.588 0 00-.586-.582h-1.453l.5-1.165h27.93l.5 1.165H51.328a.588.588 0 00-.586.582c0 .319.266.583.586.583h26.024a.6.6 0 00.492-.264.578.578 0 00.047-.552l-1.008-2.33a.58.58 0 00-.54-.35H47.649a.592.592 0 00-.539.35l-1.007 2.33a.578.578 0 00.046.552.61.61 0 00.493.264z" fill="#fff"/><defs><linearGradient id="paint0_linear" x1="-4.489" y1="61.435" x2="123.144" y2="63.092" gradientUnits="userSpaceOnUse"><stop offset=".708" stop-color="#FF0084"/><stop offset=".984" stop-color="#4B00E1"/><stop offset=".984" stop-color="#4B00E1"/></linearGradient><linearGradient id="paint1_linear" x1="61.435" y1="127.359" x2="59.778" y2="-.275" gradientUnits="userSpaceOnUse"><stop offset=".708" stop-color="#FF0084"/><stop offset=".984" stop-color="#4B00E1"/><stop offset=".984" stop-color="#4B00E1"/></linearGradient></defs></svg>