<svg width="124" height="123" fill="none" xmlns="http://www.w3.org/2000/svg"><circle cx="62.373" cy="61.555" r="60.935" stroke="#4B00E1" stroke-opacity=".6"/><mask id="a" fill="#fff"><path d="M123.416 61.555a.39.39 0 01.39.392 61.429 61.429 0 01-40.658 57.424 61.457 61.457 0 01-24.29 3.519.39.39 0 01-.367-.415c.014-.216.2-.38.416-.368a60.654 60.654 0 0059.124-36.453 60.651 60.651 0 004.991-23.706.395.395 0 01.394-.393z"/></mask><path d="M123.416 61.555a.39.39 0 01.39.392 61.429 61.429 0 01-40.658 57.424 61.457 61.457 0 01-24.29 3.519.39.39 0 01-.367-.415c.014-.216.2-.38.416-.368a60.654 60.654 0 0059.124-36.453 60.651 60.651 0 004.991-23.706.395.395 0 01.394-.393z" stroke="url(#paint0_linear)" stroke-width="2" mask="url(#a)"/><mask id="b" fill="#fff"><path d="M62.372.513a.39.39 0 00-.392-.391A61.435 61.435 0 001.038 65.07a.39.39 0 00.415.366c.216-.014.38-.2.368-.416A60.651 60.651 0 0161.98.906a.394.394 0 00.391-.393z"/></mask><path d="M62.372.513a.39.39 0 00-.392-.391A61.435 61.435 0 001.038 65.07a.39.39 0 00.415.366c.216-.014.38-.2.368-.416A60.651 60.651 0 0161.98.906a.394.394 0 00.391-.393z" stroke="url(#paint1_linear)" stroke-width="2" mask="url(#b)"/><circle cx="111.994" cy="25.167" r="2.363" fill="#FB0086"/><circle cx="19.368" cy="104.56" r="2.363" fill="#FB0086"/><g clip-path="url(#clip0)" fill="#fff"><path d="M70.707 70.517a.697.697 0 00-.979 0l-6.662 6.64V58.102a.694.694 0 00-1.387 0v19.055l-6.653-6.64a.697.697 0 00-.98 0 .691.691 0 000 .976l7.842 7.813c.268.268.71.268.979 0l7.84-7.813a.691.691 0 000-.976z"/><path d="M81.087 43.598h-37.43a2.07 2.07 0 00-2.079 2.072v24.864a2.07 2.07 0 002.08 2.073h6.93a.694.694 0 00.694-.691c0-.38-.312-.69-.693-.69h-6.932a.694.694 0 01-.693-.692V51.886H81.78v18.648c0 .38-.312.691-.694.691h-6.93a.694.694 0 00-.694.69c0 .38.312.692.693.692h6.931a2.07 2.07 0 002.08-2.073V45.67a2.07 2.07 0 00-2.08-2.072zm.693 5.525H42.965V45.67c0-.38.312-.691.693-.691h37.428c.382 0 .694.31.694.69v3.454z"/><path d="M61.68 53.267H46.43a.694.694 0 00-.692.69c0 .38.312.691.693.691h15.248c.382 0 .694-.31.694-.69 0-.38-.312-.69-.694-.69z"/></g><defs><linearGradient id="paint0_linear" x1="-3.551" y1="61.555" x2="124.082" y2="63.213" gradientUnits="userSpaceOnUse"><stop offset=".708" stop-color="#FF0084"/><stop offset=".984" stop-color="#4B00E1"/><stop offset=".984" stop-color="#4B00E1"/></linearGradient><linearGradient id="paint1_linear" x1="62.372" y1="127.48" x2="60.715" y2="-.154" gradientUnits="userSpaceOnUse"><stop offset=".708" stop-color="#FF0084"/><stop offset=".984" stop-color="#4B00E1"/><stop offset=".984" stop-color="#4B00E1"/></linearGradient><clipPath id="clip0"><path fill="#fff" transform="translate(41.58 43.598)" d="M0 0h41.587v35.916H0z"/></clipPath></defs></svg>